<svg width="106" height="57" viewBox="0 0 106 57" fill="none" xmlns="http://www.w3.org/2000/svg">
<path d="M4.66699 4.66602L12.9153 24.4993L15.8437 15.8777L24.5003 12.9143L4.66699 4.66602Z" fill="#C8F159"/>
<path d="M23 22H88.6271C98.2219 22 106 29.9052 106 39.5C106 49.0948 98.2219 57 88.6271 57H40.3729C30.7781 57 23 49.2219 23 39.6271V22Z" fill="#C8F159"/>
<path d="M46.9547 44.5797V44.6318H45.5127L39.8839 39.0551V44.6318H38.7373V32.8183H39.8839V38.395L45.2174 32.8183H46.6246V32.8704L41.0305 38.6903L46.9547 44.5797ZM54.4458 36.953V44.6318H53.386V39.9412C53.386 39.5474 53.3918 39.252 53.4034 39.0551C53.1486 39.3794 52.9054 39.669 52.6737 39.9238L48.3826 44.6318H48.0004V36.953H49.0602V41.5047C49.0602 41.7479 49.0486 42.0896 49.0254 42.5297C49.2107 42.2981 49.5003 41.9622 49.8941 41.5221L54.0636 36.953H54.4458ZM60.845 36.7967C61.563 36.7967 62.2116 36.9704 62.7907 37.3179C63.3698 37.6537 63.8215 38.1228 64.1458 38.7251C64.4701 39.3273 64.6322 40.0049 64.6322 40.7577C64.6322 41.5337 64.4701 42.2286 64.1458 42.8424C63.8215 43.4563 63.3698 43.9369 62.7907 44.2844C62.2116 44.6318 61.5572 44.8056 60.8276 44.8056C60.2022 44.8056 59.6289 44.6782 59.1077 44.4234C58.5865 44.157 58.1637 43.8037 57.8394 43.3636C57.8626 44.1512 57.8742 44.8403 57.8742 45.431V48.4539H56.8144V36.953H57.6136L57.8394 38.2386C58.1753 37.7869 58.5981 37.4337 59.1077 37.1789C59.6289 36.9241 60.208 36.7967 60.845 36.7967ZM60.7581 43.8153C61.3024 43.8153 61.7889 43.6879 62.2174 43.4331C62.6459 43.1783 62.976 42.8251 63.2077 42.3734C63.4509 41.9101 63.5725 41.3889 63.5725 40.8098C63.5725 40.2307 63.4509 39.7095 63.2077 39.2462C62.976 38.783 62.6459 38.4239 62.2174 38.1691C61.7889 37.9143 61.3024 37.7869 60.7581 37.7869C59.901 37.7869 59.1945 38.0649 58.6386 38.6208C58.0943 39.1652 57.8221 39.8775 57.8221 40.7577C57.8221 41.3599 57.9437 41.8927 58.1869 42.356C58.4417 42.8193 58.7892 43.1783 59.2293 43.4331C59.681 43.6879 60.1906 43.8153 60.7581 43.8153ZM72.9051 36.953V44.6318H71.8454V39.9412C71.8454 39.5474 71.8512 39.252 71.8628 39.0551C71.608 39.3794 71.3647 39.669 71.1331 39.9238L66.842 44.6318H66.4598V36.953H67.5195V41.5047C67.5195 41.7479 67.508 42.0896 67.4848 42.5297C67.6701 42.2981 67.9596 41.9622 68.3534 41.5221L72.5229 36.953H72.9051ZM74.0577 43.7806C74.7526 43.7111 75.2449 43.4563 75.5344 43.0162C75.8355 42.576 76.0208 41.9043 76.0903 41.0009L76.4204 36.953H81.3891V44.6318H80.3293V37.9433H77.3759L77.1327 40.914C77.0632 41.7711 76.9242 42.466 76.7158 42.9988C76.5073 43.52 76.2004 43.9195 75.795 44.1975C75.3896 44.4639 74.8511 44.6434 74.1793 44.7361L74.0577 43.7806ZM82.5324 43.7806C83.2273 43.7111 83.7196 43.4563 84.0091 43.0162C84.3102 42.576 84.4956 41.9043 84.565 41.0009L84.8951 36.953H89.8638V44.6318H88.804V37.9433H85.8506L85.6074 40.914C85.5379 41.7711 85.3989 42.466 85.1905 42.9988C84.982 43.52 84.6751 43.9195 84.2697 44.1975C83.8643 44.4639 83.3258 44.6434 82.654 44.7361L82.5324 43.7806Z" fill="#151515"/>
</svg>
