<svg width="402" height="74" viewBox="0 0 402 74" fill="none" xmlns="http://www.w3.org/2000/svg">
<path d="M401.89 71.1402C402.037 70.9937 402.037 70.7563 401.89 70.6098L399.504 68.2234C399.357 68.0769 399.12 68.0769 398.973 68.2234C398.827 68.3698 398.827 68.6072 398.973 68.7537L401.095 70.875L398.973 72.9963C398.827 73.1428 398.827 73.3802 398.973 73.5266C399.12 73.6731 399.357 73.6731 399.504 73.5266L401.89 71.1402ZM-11.25 0.75H-8.26562V0H-11.25V0.75ZM-2.29688 0.75H3.67187V0H-2.29688V0.75ZM9.64062 0.75H15.6094V0H9.64062V0.75ZM21.5781 0.75H27.5469V0H21.5781V0.75ZM33.5156 0.75H39.4844V0H33.5156V0.75ZM45.4531 0.75H51.4219V0H45.4531V0.75ZM57.3906 0.75H63.3594V0H57.3906V0.75ZM69.3281 0.75H75.2969V0H69.3281V0.75ZM81.2656 0.75H87.2344V0H81.2656V0.75ZM93.2031 0.75H99.1719V0H93.2031V0.75ZM105.141 0.75H111.109V0H105.141V0.75ZM117.078 0.75H123.047V0H117.078V0.75ZM129.016 0.75H132V0H129.016V0.75ZM132 0.75C133.17 0.75 134.285 0.982824 135.301 1.40432L135.589 0.711528C134.483 0.252927 133.27 0 132 0V0.75ZM139.971 6.07355C140.392 7.08999 140.625 8.20483 140.625 9.375H141.375C141.375 8.10452 141.122 6.89217 140.663 5.78626L139.971 6.07355ZM140.625 9.375V12.6562H141.375V9.375H140.625ZM140.625 19.2188V25.7812H141.375V19.2188H140.625ZM140.625 32.3438V38.9062H141.375V32.3438H140.625ZM140.625 45.4688V52.0312H141.375V45.4688H140.625ZM140.625 58.5938V61.875H141.375V58.5938H140.625ZM140.625 61.875C140.625 63.1455 140.878 64.3578 141.337 65.4637L142.029 65.1764C141.608 64.16 141.375 63.0452 141.375 61.875H140.625ZM146.411 70.5385C147.517 70.9971 148.73 71.25 150 71.25V70.5C148.83 70.5 147.715 70.2672 146.699 69.8457L146.411 70.5385ZM150 71.25H152.996V70.5H150V71.25ZM158.987 71.25H164.978V70.5H158.987V71.25ZM170.969 71.25H176.96V70.5H170.969V71.25ZM182.951 71.25H188.942V70.5H182.951V71.25ZM194.933 71.25H200.924V70.5H194.933V71.25ZM206.915 71.25H212.906V70.5H206.915V71.25ZM218.897 71.25H224.888V70.5H218.897V71.25ZM230.879 71.25H236.871V70.5H230.879V71.25ZM242.862 71.25H248.853V70.5H242.862V71.25ZM254.844 71.25H260.835V70.5H254.844V71.25ZM266.826 71.25H272.817V70.5H266.826V71.25ZM278.808 71.25H284.799V70.5H278.808V71.25ZM290.79 71.25H296.781V70.5H290.79V71.25ZM302.772 71.25H308.763V70.5H302.772V71.25ZM314.754 71.25H320.746V70.5H314.754V71.25ZM326.737 71.25H332.728V70.5H326.737V71.25ZM338.719 71.25H344.71V70.5H338.719V71.25ZM350.701 71.25H356.692V70.5H350.701V71.25ZM362.683 71.25H368.674V70.5H362.683V71.25ZM374.665 71.25H380.656V70.5H374.665V71.25ZM386.647 71.25H392.638V70.5H386.647V71.25ZM398.63 71.25H401.625V70.5H398.63V71.25Z" fill="#5F5F5F"/>
</svg>
