<svg width="296" height="36" viewBox="0 0 296 36" fill="none" xmlns="http://www.w3.org/2000/svg">
<path d="M292.64 25.2348C292.494 25.0884 292.256 25.0884 292.11 25.2348L289.723 27.6213C289.577 27.7678 289.577 28.0052 289.723 28.1517C289.87 28.2981 290.107 28.2981 290.254 28.1517L292.375 26.0303L294.496 28.1517C294.643 28.2981 294.88 28.2981 295.027 28.1517C295.173 28.0052 295.173 27.7678 295.027 27.6213L292.64 25.2348ZM0.25 1.125H3.28125V0.375H0.25V1.125ZM9.34375 1.125H15.4062V0.375H9.34375V1.125ZM21.4687 1.125H27.5312V0.375H21.4687V1.125ZM33.5938 1.125H39.6562V0.375H33.5938V1.125ZM45.7188 1.125H51.7812V0.375H45.7188V1.125ZM57.8438 1.125H63.9062V0.375H57.8438V1.125ZM69.9688 1.125H76.0312V0.375H69.9688V1.125ZM82.0938 1.125H88.1562V0.375H82.0938V1.125ZM94.2187 1.125H100.281V0.375H94.2187V1.125ZM106.344 1.125H112.406V0.375H106.344V1.125ZM118.469 1.125H124.531V0.375H118.469V1.125ZM130.594 1.125H136.656V0.375H130.594V1.125ZM142.719 1.125H145.75V0.375H142.719V1.125ZM145.75 1.125C146.92 1.125 148.035 1.35782 149.051 1.77932L149.339 1.08653C148.233 0.627927 147.02 0.375 145.75 0.375V1.125ZM153.721 6.44855C154.142 7.46499 154.375 8.57983 154.375 9.75H155.125C155.125 8.47952 154.872 7.26717 154.413 6.16126L153.721 6.44855ZM154.375 9.75V13.7813H155.125V9.75H154.375ZM154.375 21.8438V25.875H155.125V21.8438H154.375ZM154.375 25.875C154.375 27.1455 154.628 28.3578 155.087 29.4637L155.779 29.1764C155.358 28.16 155.125 27.0452 155.125 25.875H154.375ZM160.161 34.5385C161.267 34.9971 162.48 35.25 163.75 35.25V34.5C162.58 34.5 161.465 34.2672 160.449 33.8457L160.161 34.5385ZM163.75 35.25H166.741V34.5H163.75V35.25ZM172.722 35.25H178.703V34.5H172.722V35.25ZM184.684 35.25H190.666V34.5H184.684V35.25ZM196.647 35.25H202.628V34.5H196.647V35.25ZM208.609 35.25H214.591V34.5H208.609V35.25ZM220.572 35.25H226.553V34.5H220.572V35.25ZM232.534 35.25H238.516V34.5H232.534V35.25ZM244.497 35.25H250.478V34.5H244.497V35.25ZM256.459 35.25H262.441V34.5H256.459V35.25ZM268.422 35.25H274.403V34.5H268.422V35.25ZM280.384 35.25H283.375V34.5H280.384V35.25ZM283.375 35.25C284.645 35.25 285.858 34.9971 286.964 34.5385L286.676 33.8457C285.66 34.2672 284.545 34.5 283.375 34.5V35.25ZM292.038 29.4637C292.497 28.3578 292.75 27.1455 292.75 25.875H292C292 27.0452 291.767 28.16 291.346 29.1764L292.038 29.4637ZM292.75 25.875V25.7812H292V25.875H292.75ZM292.75 25.5938V25.5H292V25.5938H292.75Z" fill="#5F5F5F"/>
</svg>
