<svg xmlns="http://www.w3.org/2000/svg" width="64" height="784" viewBox="0 0 64 784" fill="none">
  <path d="M39.5 781L44.5 783.887V778.113L39.5 781ZM33.5 0.5V4.3125H34.5V0.5H33.5ZM33.5 11.9375V19.5625H34.5V11.9375H33.5ZM33.5 27.1875V34.8125H34.5V27.1875H33.5ZM33.5 42.4375V50.0625H34.5V42.4375H33.5ZM33.5 57.6875V61.5H34.5V57.6875H33.5ZM33.5 61.5V65.7H34.5V61.5H33.5ZM33.5 74.1V82.5H34.5V74.1H33.5ZM33.5 90.9V99.3H34.5V90.9H33.5ZM33.5 107.7V116.1H34.5V107.7H33.5ZM33.5 124.5V132.9H34.5V124.5H33.5ZM33.5 141.3V145.5H34.5V141.3H33.5ZM33.5 145.5V149.2H34.5V145.5H33.5ZM33.5 156.6V164H34.5V156.6H33.5ZM33.5 171.4V178.8H34.5V171.4H33.5ZM33.5 186.2V193.6H34.5V186.2H33.5ZM33.5 201V208.4H34.5V201H33.5ZM33.5 215.8V219.5H34.5V215.8H33.5ZM33.5 219.5C33.5 220.247 33.3515 220.957 33.0829 221.605L34.0066 221.988C34.3247 221.221 34.5 220.38 34.5 219.5H33.5ZM30.1052 224.583C29.4574 224.851 28.7467 225 28 225V226C28.8804 226 29.7212 225.825 30.4883 225.507L30.1052 224.583ZM28 225H22.75V226H28V225ZM12.25 225H7V226H12.25V225ZM7 225C6.11958 225 5.27884 225.175 4.51175 225.493L4.8948 226.417C5.5426 226.149 6.25333 226 7 226V225ZM0.99342 229.012C0.675319 229.779 0.5 230.62 0.5 231.5H1.5C1.5 230.753 1.64851 230.043 1.91715 229.395L0.99342 229.012ZM0.5 231.5V235.275H1.5V231.5H0.5ZM0.5 242.825V250.375H1.5V242.825H0.5ZM0.5 257.925V265.475H1.5V257.925H0.5ZM0.5 273.025V280.575H1.5V273.025H0.5ZM0.5 288.125V295.675H1.5V288.125H0.5ZM0.5 303.225V307H1.5V303.225H0.5ZM0.5 307C0.5 307.88 0.675319 308.721 0.99342 309.488L1.91715 309.105C1.64851 308.457 1.5 307.747 1.5 307H0.5ZM4.51175 313.007C5.27884 313.325 6.11958 313.5 7 313.5V312.5C6.25333 312.5 5.5426 312.351 4.8948 312.083L4.51175 313.007ZM7 313.5H12.25V312.5H7V313.5ZM22.75 313.5H28V312.5H22.75V313.5ZM28 313.5C28.7467 313.5 29.4574 313.649 30.1052 313.917L30.4883 312.993C29.7212 312.675 28.8804 312.5 28 312.5V313.5ZM33.0829 316.895C33.3515 317.543 33.5 318.253 33.5 319H34.5C34.5 318.12 34.3247 317.279 34.0066 316.512L33.0829 316.895ZM33.5 319V323.167H34.5V319H33.5ZM33.5 331.5V339.833H34.5V331.5H33.5ZM33.5 348.167V356.5H34.5V348.167H33.5ZM33.5 364.833V369H34.5V364.833H33.5ZM33.5 369V372.982H34.5V369H33.5ZM33.5 380.946V388.911H34.5V380.946H33.5ZM33.5 396.875V404.839H34.5V396.875H33.5ZM33.5 412.804V420.768H34.5V412.804H33.5ZM33.5 428.732V436.696H34.5V428.732H33.5ZM33.5 444.661V452.625H34.5V444.661H33.5ZM33.5 460.589V468.554H34.5V460.589H33.5ZM33.5 476.518V480.5H34.5V476.518H33.5ZM33.5 480.5C33.5 481.247 33.3515 481.957 33.0829 482.605L34.0066 482.988C34.3247 482.221 34.5 481.38 34.5 480.5H33.5ZM30.1052 485.583C29.4574 485.851 28.7467 486 28 486V487C28.8804 487 29.7212 486.825 30.4883 486.507L30.1052 485.583ZM28 486H22.75V487H28V486ZM12.25 486H7V487H12.25V486ZM7 486C6.11958 486 5.27884 486.175 4.51175 486.493L4.8948 487.417C5.5426 487.149 6.25333 487 7 487V486ZM0.99342 490.012C0.675319 490.779 0.5 491.62 0.5 492.5H1.5C1.5 491.753 1.64851 491.043 1.91715 490.395L0.99342 490.012ZM0.5 492.5V496.562H1.5V492.5H0.5ZM0.5 504.688V512.812H1.5V504.688H0.5ZM0.5 520.938V525H1.5V520.938H0.5ZM0.5 525C0.5 525.88 0.675319 526.721 0.99342 527.488L1.91715 527.105C1.64851 526.457 1.5 525.747 1.5 525H0.5ZM4.51175 531.007C5.27884 531.325 6.11958 531.5 7 531.5V530.5C6.25333 530.5 5.5426 530.352 4.8948 530.083L4.51175 531.007ZM7 531.5H12.25V530.5H7V531.5ZM22.75 531.5H28V530.5H22.75V531.5ZM28 531.5C28.7467 531.5 29.4574 531.648 30.1052 531.917L30.4883 530.993C29.7212 530.675 28.8804 530.5 28 530.5V531.5ZM33.0829 534.895C33.3515 535.543 33.5 536.253 33.5 537H34.5C34.5 536.12 34.3247 535.279 34.0066 534.512L33.0829 534.895ZM33.5 537V540.583H34.5V537H33.5ZM33.5 547.75V554.917H34.5V547.75H33.5ZM33.5 562.083V569.25H34.5V562.083H33.5ZM33.5 576.417V580H34.5V576.417H33.5ZM33.5 580V584.054H34.5V580H33.5ZM33.5 592.161V600.268H34.5V592.161H33.5ZM33.5 608.375V616.482H34.5V608.375H33.5ZM33.5 624.589V632.696H34.5V624.589H33.5ZM33.5 640.804V648.911H34.5V640.804H33.5ZM33.5 657.018V665.125H34.5V657.018H33.5ZM33.5 673.232V681.339H34.5V673.232H33.5ZM33.5 689.446V693.5H34.5V689.446H33.5ZM33.5 693.5C33.5 694.38 33.6753 695.221 33.9934 695.988L34.9171 695.605C34.6485 694.957 34.5 694.247 34.5 693.5H33.5ZM37.5117 699.507C38.2788 699.825 39.1196 700 40 700V699C39.2533 699 38.5426 698.852 37.8948 698.583L37.5117 699.507ZM40 700H44.375V699H40V700ZM53.125 700H57.5V699H53.125V700ZM57.5 700C58.2467 700 58.9574 700.148 59.6052 700.417L59.9883 699.493C59.2212 699.175 58.3804 699 57.5 699V700ZM62.5829 703.395C62.8515 704.043 63 704.753 63 705.5H64C64 704.62 63.8247 703.779 63.5066 703.012L62.5829 703.395ZM63 705.5V709.844H64V705.5H63ZM63 718.531V727.219H64V718.531H63ZM63 735.906V744.594H64V735.906H63ZM63 753.281V761.969H64V753.281H63ZM63 770.656V775H64V770.656H63ZM63 775C63 775.747 62.8515 776.457 62.5829 777.105L63.5066 777.488C63.8247 776.721 64 775.88 64 775H63ZM59.6052 780.083C58.9574 780.352 58.2467 780.5 57.5 780.5V781.5C58.3804 781.5 59.2212 781.325 59.9883 781.007L59.6052 780.083ZM57.5 780.5H53V781.5H57.5V780.5Z" fill="#5F5F5F"/>
</svg>