<svg xmlns="http://www.w3.org/2000/svg" width="274" height="7" viewBox="0 0 274 7" fill="none">
  <path d="M273.015 4.01517C273.162 3.86872 273.162 3.63128 273.015 3.48483L270.629 1.09835C270.482 0.951903 270.245 0.951903 270.098 1.09835C269.952 1.2448 269.952 1.48223 270.098 1.62868L272.22 3.75L270.098 5.87132C269.952 6.01777 269.952 6.2552 270.098 6.40165C270.245 6.5481 270.482 6.5481 270.629 6.40165L273.015 4.01517ZM0.125 4.125H3.08832V3.375H0.125V4.125ZM9.01495 4.125H14.9416V3.375H9.01495V4.125ZM20.8682 4.125H26.7948V3.375H20.8682V4.125ZM32.7215 4.125H38.6481V3.375H32.7215V4.125ZM44.5747 4.125H50.5014V3.375H44.5747V4.125ZM56.428 4.125H62.3546V3.375H56.428V4.125ZM68.2813 4.125H74.2079V3.375H68.2813V4.125ZM80.1345 4.125H86.0611V3.375H80.1345V4.125ZM91.9878 4.125H97.9144V3.375H91.9878V4.125ZM103.841 4.125H109.768V3.375H103.841V4.125ZM115.694 4.125H121.621V3.375H115.694V4.125ZM127.548 4.125H133.474V3.375H127.548V4.125ZM139.401 4.125H145.327V3.375H139.401V4.125ZM151.254 4.125H157.181V3.375H151.254V4.125ZM163.107 4.125H169.034V3.375H163.107V4.125ZM174.961 4.125H180.887V3.375H174.961V4.125ZM186.814 4.125H192.741V3.375H186.814V4.125ZM198.667 4.125H204.594V3.375H198.667V4.125ZM210.52 4.125H216.447V3.375H210.52V4.125ZM222.374 4.125H228.3V3.375H222.374V4.125ZM234.227 4.125H240.154V3.375H234.227V4.125ZM246.08 4.125H252.007V3.375H246.08V4.125ZM257.934 4.125H263.86V3.375H257.934V4.125ZM269.787 4.125H272.75V3.375H269.787V4.125Z" fill="#5F5F5F"/>
</svg>