<svg width="299" height="62" viewBox="0 0 299 62" fill="none" xmlns="http://www.w3.org/2000/svg">
<path d="M294.985 34.1402C295.131 34.2866 295.369 34.2866 295.515 34.1402L297.902 31.7537C298.048 31.6072 298.048 31.3698 297.902 31.2233C297.755 31.0769 297.518 31.0769 297.371 31.2233L295.25 33.3447L293.129 31.2233C292.982 31.0769 292.745 31.0769 292.598 31.2233C292.452 31.3698 292.452 31.6072 292.598 31.7537L294.985 34.1402ZM0.125 61.25H3.00568V60.5H0.125V61.25ZM8.76705 61.25H14.5284V60.5H8.76705V61.25ZM20.2898 61.25H26.0511V60.5H20.2898V61.25ZM31.8125 61.25H37.5739V60.5H31.8125V61.25ZM43.3352 61.25H49.0966V60.5H43.3352V61.25ZM54.858 61.25H60.6193V60.5H54.858V61.25ZM66.3807 61.25H72.142V60.5H66.3807V61.25ZM77.9034 61.25H83.6648V60.5H77.9034V61.25ZM89.4261 61.25H95.1875V60.5H89.4261V61.25ZM100.949 61.25H106.71V60.5H100.949V61.25ZM112.472 61.25H118.233V60.5H112.472V61.25ZM123.994 61.25H126.875V60.5H123.994V61.25ZM126.875 61.25C128.145 61.25 129.358 60.9971 130.464 60.5385L130.176 59.8457C129.16 60.2672 128.045 60.5 126.875 60.5V61.25ZM135.538 55.4637C135.997 54.3578 136.25 53.1455 136.25 51.875H135.5C135.5 53.0452 135.267 54.16 134.846 55.1764L135.538 55.4637ZM136.25 51.875V49.25H135.5V51.875H136.25ZM136.25 44V38.75H135.5V44H136.25ZM136.25 33.5V28.25H135.5V33.5H136.25ZM136.25 23V17.75H135.5V23H136.25ZM136.25 12.5V9.875H135.5V12.5H136.25ZM136.25 9.875C136.25 8.70483 136.483 7.58999 136.904 6.57355L136.212 6.28626C135.753 7.39217 135.5 8.60452 135.5 9.875H136.25ZM141.574 1.90432C142.59 1.48282 143.705 1.25 144.875 1.25V0.5C143.605 0.5 142.392 0.752927 141.286 1.21153L141.574 1.90432ZM144.875 1.25H147.82V0.5H144.875V1.25ZM153.711 1.25H159.602V0.5H153.711V1.25ZM165.492 1.25H171.383V0.5H165.492V1.25ZM177.273 1.25H183.164V0.5H177.273V1.25ZM189.055 1.25H194.945V0.5H189.055V1.25ZM200.836 1.25H206.727V0.5H200.836V1.25ZM212.617 1.25H218.508V0.5H212.617V1.25ZM224.398 1.25H230.289V0.5H224.398V1.25ZM236.18 1.25H242.07V0.5H236.18V1.25ZM247.961 1.25H253.852V0.5H247.961V1.25ZM259.742 1.25H265.633V0.5H259.742V1.25ZM271.523 1.25H277.414V0.5H271.523V1.25ZM283.305 1.25H286.25V0.5H283.305V1.25ZM286.25 1.25C287.42 1.25 288.535 1.48282 289.551 1.90432L289.839 1.21153C288.733 0.752927 287.52 0.5 286.25 0.5V1.25ZM294.221 6.57356C294.642 7.58999 294.875 8.70483 294.875 9.875H295.625C295.625 8.60452 295.372 7.39217 294.913 6.28627L294.221 6.57356ZM294.875 9.875V12.875H295.625V9.875H294.875ZM294.875 18.875V24.875H295.625V18.875H294.875ZM294.875 30.875V33.875H295.625V30.875H294.875Z" fill="#5F5F5F"/>
</svg>
