<svg width="353" height="97" viewBox="0 0 353 97" fill="none" xmlns="http://www.w3.org/2000/svg">
<path d="M363.015 94.1402C363.162 93.9937 363.162 93.7563 363.015 93.6098L360.629 91.2234C360.482 91.0769 360.245 91.0769 360.098 91.2234C359.952 91.3698 359.952 91.6072 360.098 91.7537L362.22 93.875L360.098 95.9963C359.952 96.1428 359.952 96.3802 360.098 96.5266C360.245 96.6731 360.482 96.6731 360.629 96.5266L363.015 94.1402ZM0.125 1.25H3.17411V0.5H0.125V1.25ZM9.27232 1.25H15.3705V0.5H9.27232V1.25ZM21.4688 1.25H27.567V0.5H21.4688V1.25ZM33.6652 1.25H39.7634V0.5H33.6652V1.25ZM45.8616 1.25H51.9598V0.5H45.8616V1.25ZM58.058 1.25H64.1562V0.5H58.058V1.25ZM70.2545 1.25H76.3527V0.5H70.2545V1.25ZM82.4509 1.25H88.5491V0.5H82.4509V1.25ZM94.6473 1.25H100.746V0.5H94.6473V1.25ZM106.844 1.25H112.942V0.5H106.844V1.25ZM119.04 1.25H125.138V0.5H119.04V1.25ZM131.237 1.25H137.335V0.5H131.237V1.25ZM143.433 1.25H149.531V0.5H143.433V1.25ZM155.629 1.25H161.728V0.5H155.629V1.25ZM167.826 1.25H173.924V0.5H167.826V1.25ZM180.022 1.25H186.121V0.5H180.022V1.25ZM192.219 1.25H198.317V0.5H192.219V1.25ZM204.415 1.25H210.513V0.5H204.415V1.25ZM216.612 1.25H222.71V0.5H216.612V1.25ZM228.808 1.25H234.906V0.5H228.808V1.25ZM241.005 1.25H247.103V0.5H241.005V1.25ZM253.201 1.25H256.25V0.5H253.201V1.25ZM256.25 1.25C257.42 1.25 258.535 1.48282 259.551 1.90432L259.839 1.21153C258.733 0.752927 257.52 0.5 256.25 0.5V1.25ZM264.221 6.57355C264.642 7.58999 264.875 8.70483 264.875 9.875H265.625C265.625 8.60452 265.372 7.39217 264.913 6.28626L264.221 6.57355ZM264.875 9.875V13H265.625V9.875H264.875ZM264.875 19.25V25.5H265.625V19.25H264.875ZM264.875 31.75V38H265.625V31.75H264.875ZM264.875 44.25V50.5H265.625V44.25H264.875ZM264.875 56.75V63H265.625V56.75H264.875ZM264.875 69.25V75.5H265.625V69.25H264.875ZM264.875 81.75V84.875H265.625V81.75H264.875ZM264.875 84.875C264.875 86.1455 265.128 87.3578 265.587 88.4637L266.279 88.1764C265.858 87.16 265.625 86.0452 265.625 84.875H264.875ZM270.661 93.5385C271.767 93.9971 272.98 94.25 274.25 94.25V93.5C273.08 93.5 271.965 93.2672 270.949 92.8457L270.661 93.5385ZM274.25 94.25H277.411V93.5H274.25V94.25ZM283.732 94.25H290.054V93.5H283.732V94.25ZM296.375 94.25H302.696V93.5H296.375V94.25ZM309.018 94.25H315.339V93.5H309.018V94.25ZM321.661 94.25H327.982V93.5H321.661V94.25ZM334.304 94.25H340.625V93.5H334.304V94.25ZM346.946 94.25H353.268V93.5H346.946V94.25ZM359.589 94.25H362.75V93.5H359.589V94.25Z" fill="#5F5F5F"/>
</svg>
